<svg xmlns="http://www.w3.org/2000/svg" width="37.504" height="54.384" viewBox="0 0 37.504 54.384"><defs><style>.a{fill:#0075d6;}</style></defs><path class="a" d="M14.819,22.339V12.654a6.474,6.474,0,0,1,12.949,0v9.686a11.654,11.654,0,1,0-12.949,0Zm14.243,6.4a5.112,5.112,0,0,0-2.3-.544h-1.58V12.654a3.885,3.885,0,0,0-7.769,0V40.467L8.5,38.6A2.911,2.911,0,0,0,5.833,43.5L16.217,53.882a5.281,5.281,0,0,0,3.677,1.5h15.8A5.165,5.165,0,0,0,40.82,50.93l1.632-11.576a5.183,5.183,0,0,0-2.823-5.361Z" transform="translate(-4.997 -1)"/></svg>