<svg xmlns="http://www.w3.org/2000/svg" width="66" height="66" viewBox="0 0 66 66"><defs><style>.a{fill:none;}.b{fill:#0075d6;}</style></defs><g transform="translate(0)"><rect class="a" width="66" height="66" transform="translate(0 0)"/><rect class="a" width="66" height="66" transform="translate(0 0)"/><g transform="translate(8.313 8.313)"><path class="b" d="M46.888,3H8.486A5.5,5.5,0,0,0,3,8.486v38.4a5.5,5.5,0,0,0,5.486,5.486h38.4a5.5,5.5,0,0,0,5.486-5.486V8.486A5.5,5.5,0,0,0,46.888,3ZM31.966,12.683h0a2.07,2.07,0,0,1,2.908,0L37.288,15.1,39.7,12.683a2.07,2.07,0,0,1,2.908,0h0a2.07,2.07,0,0,1,0,2.908L40.2,18l2.414,2.414a2.07,2.07,0,0,1,0,2.908h0a2.07,2.07,0,0,1-2.908,0l-2.414-2.386-2.414,2.414a2.07,2.07,0,0,1-2.908,0h0a2.07,2.07,0,0,1,0-2.908l2.414-2.414-2.414-2.414A2.053,2.053,0,0,1,31.966,12.683ZM13.972,15.947h9.6A2.072,2.072,0,0,1,25.63,18h0a2.072,2.072,0,0,1-2.057,2.057h-9.6A2.072,2.072,0,0,1,11.915,18h0A2.072,2.072,0,0,1,13.972,15.947ZM24.258,38.659H20.83v3.429a2.072,2.072,0,0,1-2.057,2.057h0a2.072,2.072,0,0,1-2.057-2.057V38.659H13.286A2.072,2.072,0,0,1,11.229,36.6h0a2.072,2.072,0,0,1,2.057-2.057h3.429V31.116a2.072,2.072,0,0,1,2.057-2.057h0a2.072,2.072,0,0,1,2.057,2.057v3.429h3.429A2.072,2.072,0,0,1,26.316,36.6h0A2.072,2.072,0,0,1,24.258,38.659Zm17.83,3.429h-9.6a2.072,2.072,0,0,1-2.057-2.057h0a2.072,2.072,0,0,1,2.057-2.057h9.6a2.072,2.072,0,0,1,2.057,2.057h0A2.072,2.072,0,0,1,42.088,42.088Zm0-6.858h-9.6a2.072,2.072,0,0,1-2.057-2.057h0a2.072,2.072,0,0,1,2.057-2.057h9.6a2.072,2.072,0,0,1,2.057,2.057h0A2.072,2.072,0,0,1,42.088,35.23Z" transform="translate(-3 -3)"/></g></g></svg>