<svg xmlns="http://www.w3.org/2000/svg" width="58" height="58" viewBox="0 0 58 58"><defs><style>.a{fill:#f5faff;}.b{fill:#0075d6;}</style></defs><g transform="translate(-1390 -827)"><rect class="a" width="58" height="58" rx="15" transform="translate(1390 827)"/><path class="b" d="M16.616,92.049,23.467,85.2a2.154,2.154,0,0,0,0-3.045l-1.523-1.523a2.154,2.154,0,0,0-3.045,0l-6.851,6.851L5.2,80.631a2.154,2.154,0,0,0-3.045,0L.631,82.153a2.154,2.154,0,0,0,0,3.045l6.851,6.851L.631,98.9a2.154,2.154,0,0,0,0,3.045l1.523,1.523a2.154,2.154,0,0,0,3.045,0l6.851-6.851,6.851,6.851a2.154,2.154,0,0,0,3.045,0l1.523-1.523a2.154,2.154,0,0,0,0-3.045Z" transform="translate(1407 764)"/></g></svg>