<svg xmlns="http://www.w3.org/2000/svg" width="58" height="58" viewBox="0 0 58 58"><defs><style>.a{fill:#f5faff;}.b{fill:#0075d6;}</style></defs><g transform="translate(-1322 -827)"><g transform="translate(-88 -241)"><rect class="a" width="58" height="58" rx="15" transform="translate(1410 1068)"/></g><path class="b" d="M11.022,88.822.475,78.275a1.623,1.623,0,0,1,0-2.295L2.77,73.686a1.622,1.622,0,0,1,2.295,0l7.1,7.1L27.387,65.573a1.623,1.623,0,0,1,2.295,0l2.295,2.295a1.623,1.623,0,0,1,0,2.295L13.317,88.822a1.623,1.623,0,0,1-2.295,0Z" transform="translate(1334.774 778.802)"/></g></svg>