<svg xmlns="http://www.w3.org/2000/svg" width="66" height="66" viewBox="0 0 66 66"><defs><style>.a{fill:none;}.b{fill:#0075d6;}</style></defs><g transform="translate(0)"><rect class="a" width="66" height="66" transform="translate(0 0)"/><path class="b" d="M26.848,14.449a2.769,2.769,0,0,0-2.761-2.761H4.761a2.761,2.761,0,0,0,0,5.522H24.087A2.769,2.769,0,0,0,26.848,14.449Zm0,22.087a2.769,2.769,0,0,0-2.761-2.761H4.761a2.761,2.761,0,0,0,0,5.522H24.087A2.769,2.769,0,0,0,26.848,36.537Zm16.7-15.765a2.75,2.75,0,0,1-3.893,0l-5.853-5.853a2.75,2.75,0,0,1,0-3.893h0a2.75,2.75,0,0,1,3.893,0l3.893,3.893,9.774-9.774a2.75,2.75,0,0,1,3.893,0h0a2.75,2.75,0,0,1,0,3.893Zm0,22.087a2.75,2.75,0,0,1-3.893,0l-5.853-5.853a2.75,2.75,0,0,1,0-3.893h0a2.75,2.75,0,0,1,3.893,0l3.893,3.893,9.774-9.774a2.75,2.75,0,0,1,3.893,0h0a2.75,2.75,0,0,1,0,3.893Z" transform="translate(3.391 7.507)"/></g></svg>