<svg xmlns="http://www.w3.org/2000/svg" width="58" height="58" viewBox="0 0 58 58"><defs><style>.a{fill:#ebf7ee;}.b{fill:#64bc26;}</style></defs><g transform="translate(-1410 -1068)"><rect class="a" width="58" height="58" rx="16" transform="translate(1410 1068)"/></g><path class="b" d="M9.11,84.705.393,75.989a1.341,1.341,0,0,1,0-1.9l1.9-1.9a1.341,1.341,0,0,1,1.9,0l5.872,5.872L22.635,65.491a1.341,1.341,0,0,1,1.9,0l1.9,1.9a1.341,1.341,0,0,1,0,1.9L11.006,84.706a1.341,1.341,0,0,1-1.9,0Z" transform="translate(15.999 -46.098)"/></svg>