<svg width="32" height="30" viewBox="0 0 32 30" fill="none" xmlns="http://www.w3.org/2000/svg">
<path d="M21.2092 24.69L19.1667 22.5683L19.0559 22.4575L17.045 20.4467C16.7259 20.5026 16.4031 20.5343 16.0792 20.5417C15.3448 20.5522 14.6157 20.4166 13.9342 20.1428C13.2527 19.869 12.6324 19.4625 12.1094 18.9468C11.5864 18.4312 11.1711 17.8167 10.8876 17.1392C10.6042 16.4616 10.4583 15.7345 10.4584 15C10.4657 14.6761 10.4975 14.3533 10.5534 14.0342L7.38669 10.8675L4.91669 8.46084C3.12963 10.1447 1.59867 12.081 0.372527 14.2083C0.23356 14.449 0.1604 14.7221 0.1604 15C0.1604 15.2779 0.23356 15.551 0.372527 15.7917C1.37003 17.5175 6.70586 26.0833 16.0317 26.0833H16.4275C18.1811 26.0313 19.9121 25.6723 21.5417 25.0225L21.2092 24.69ZM10.6009 5.12001L15.0342 9.55334C15.3533 9.49744 15.6762 9.46569 16 9.45834C17.4698 9.45834 18.8793 10.0422 19.9186 11.0815C20.9578 12.1207 21.5417 13.5303 21.5417 15C21.5343 15.3239 21.5026 15.6467 21.4467 15.9658L25.69 20.2092L27.02 21.5392C28.8295 19.8598 30.382 17.9232 31.6275 15.7917C31.7665 15.551 31.8397 15.2779 31.8397 15C31.8397 14.7221 31.7665 14.449 31.6275 14.2083C30.6142 12.4508 25.0409 3.63168 15.5725 3.91668C13.8189 3.96869 12.088 4.32774 10.4584 4.97751L10.6009 5.12001ZM29.7909 26.5425L27.7325 24.5L24.5659 21.3333L9.49253 6.24417L7.16503 3.91668L4.45753 1.20918C4.3099 1.06155 4.13464 0.944443 3.94175 0.864548C3.74887 0.784652 3.54214 0.74353 3.33336 0.74353C3.12458 0.74353 2.91785 0.784652 2.72497 0.864548C2.53208 0.944443 2.35682 1.06155 2.20919 1.20918C1.91105 1.50732 1.74355 1.9117 1.74355 2.33334C1.74355 2.75499 1.91105 3.15936 2.20919 3.45751L5.75586 7.08334L8.52669 9.77501L20.1009 21.3333L20.2117 21.4442L22.3334 23.5658L23.2675 24.5L27.5425 28.7908C27.6897 28.9392 27.8648 29.057 28.0578 29.1374C28.2507 29.2178 28.4577 29.2592 28.6667 29.2592C28.8757 29.2592 29.0827 29.2178 29.2756 29.1374C29.4685 29.057 29.6437 28.9392 29.7909 28.7908C29.9393 28.6436 30.0571 28.4685 30.1374 28.2756C30.2178 28.0826 30.2592 27.8757 30.2592 27.6667C30.2592 27.4577 30.2178 27.2507 30.1374 27.0578C30.0571 26.8648 29.9393 26.6897 29.7909 26.5425Z" fill="#CEDFED"/>
</svg>
