<svg xmlns="http://www.w3.org/2000/svg" width="66.503" height="66.503" viewBox="0 0 66.503 66.503"><defs><style>.a{fill:none;}.b{fill:#0075d6;}</style></defs><path class="a" d="M0,0H66.5V66.5H0Z"/><path class="b" d="M5.771,30.71H22.4a2.779,2.779,0,0,0,2.771-2.771V5.771A2.779,2.779,0,0,0,22.4,3H5.771A2.779,2.779,0,0,0,3,5.771V27.939A2.779,2.779,0,0,0,5.771,30.71Zm0,22.168H22.4a2.779,2.779,0,0,0,2.771-2.771V39.022A2.779,2.779,0,0,0,22.4,36.251H5.771A2.779,2.779,0,0,0,3,39.022V50.106A2.779,2.779,0,0,0,5.771,52.877Zm27.71,0H50.106a2.779,2.779,0,0,0,2.771-2.771V27.939a2.779,2.779,0,0,0-2.771-2.771H33.481a2.779,2.779,0,0,0-2.771,2.771V50.106A2.779,2.779,0,0,0,33.481,52.877ZM30.71,5.771V16.855a2.779,2.779,0,0,0,2.771,2.771H50.106a2.779,2.779,0,0,0,2.771-2.771V5.771A2.779,2.779,0,0,0,50.106,3H33.481A2.779,2.779,0,0,0,30.71,5.771Z" transform="translate(5.313 5.313)"/></svg>