<svg xmlns="http://www.w3.org/2000/svg" width="58" height="58" viewBox="0 0 58 58"><defs><style>.a{fill:#fcedea;}.b{fill:#ea1601;}</style></defs><rect class="a" width="58" height="58" rx="16"/><path class="b" d="M13.791,90l5.686-5.686a1.787,1.787,0,0,0,0-2.527l-1.264-1.264a1.787,1.787,0,0,0-2.527,0L10,86.209,4.314,80.523a1.787,1.787,0,0,0-2.527,0L.523,81.787a1.787,1.787,0,0,0,0,2.527L6.209,90,.523,95.686a1.787,1.787,0,0,0,0,2.527l1.264,1.264a1.787,1.787,0,0,0,2.527,0L10,93.791l5.686,5.686a1.787,1.787,0,0,0,2.527,0l1.264-1.264a1.787,1.787,0,0,0,0-2.527Z" transform="translate(19 -61)"/></svg>