<svg width="18" height="17" viewBox="0 0 18 17" fill="none" xmlns="http://www.w3.org/2000/svg">
<path fill-rule="evenodd" clip-rule="evenodd" d="M1.67702 0H11.2767C12.199 0 12.9537 0.754669 12.9537 1.67702V6.4131H12.8351C12.26 6.4131 11.7905 6.88257 11.7905 7.45765V8.00786C11.7905 8.30129 11.9128 8.56723 12.1089 8.75733C11.9127 8.94744 11.7905 9.21338 11.7905 9.50676V10.057C11.7905 10.3504 11.9128 10.6163 12.1089 10.8064C11.9127 10.9966 11.7905 11.2625 11.7905 11.5559V12.1061C11.7905 12.3996 11.9128 12.6655 12.1089 12.8556C11.9127 13.0457 11.7905 13.3116 11.7905 13.605V14.1552C11.7905 14.4487 11.9128 14.7146 12.1089 14.9047C11.9408 15.0677 11.8269 15.2863 11.7979 15.5303C11.6336 15.5844 11.4584 15.6138 11.2767 15.6138H1.67702C0.754632 15.6138 0 14.8592 0 13.9368V1.67702C0 0.754669 0.754632 0 1.67702 0ZM12.8351 16.6588H17.5456C17.795 16.6588 18 16.4537 18 16.2044V15.6542C18 15.4048 17.795 15.1998 17.5456 15.1998H12.8351C12.5857 15.1998 12.3807 15.4049 12.3807 15.6542V16.2044C12.3807 16.4537 12.5857 16.6588 12.8351 16.6588ZM12.8351 14.6097H17.5456C17.795 14.6097 18 14.4046 18 14.1553V13.6051C18 13.3557 17.795 13.1507 17.5456 13.1507H12.8351C12.5857 13.1507 12.3807 13.3558 12.3807 13.6051V14.1553C12.3807 14.4046 12.5857 14.6097 12.8351 14.6097ZM12.8351 10.5114H17.5456C17.795 10.5114 18 10.3063 18 10.057V9.50676C18 9.25742 17.795 9.05238 17.5456 9.05238H12.8351C12.5857 9.05238 12.3807 9.25746 12.3807 9.50676V10.057C12.3807 10.3063 12.5857 10.5114 12.8351 10.5114ZM12.8351 12.5605H17.5456C17.795 12.5605 18 12.3555 18 12.1061V11.5559C18 11.3066 17.795 11.1015 17.5456 11.1015H12.8351C12.5857 11.1015 12.3807 11.3066 12.3807 11.5559V12.1061C12.3807 12.3555 12.5857 12.5605 12.8351 12.5605ZM12.8351 8.46225H17.5456C17.795 8.46225 18 8.25721 18 8.00786V7.45765C18 7.20831 17.795 7.00326 17.5456 7.00326H12.8351C12.5857 7.00326 12.3807 7.20834 12.3807 7.45765V8.00786C12.3807 8.25721 12.5857 8.46225 12.8351 8.46225ZM2.23605 2.40712C2.0237 2.40712 1.85053 2.5803 1.85053 2.79264V4.30586C1.85053 4.5182 2.0237 4.69138 2.23605 4.69138H10.7177C10.93 4.69138 11.1032 4.5182 11.1032 4.30586V2.79264C11.1032 2.5803 10.93 2.40712 10.7177 2.40712H2.23605ZM2.59026 6.52744C2.37791 6.52744 2.20473 6.70062 2.20473 6.91297V7.41416C2.20473 7.62651 2.37791 7.79969 2.59026 7.79969H4.03117C4.24352 7.79969 4.41669 7.62651 4.41669 7.41416V6.91297C4.41669 6.70062 4.24352 6.52744 4.03117 6.52744H2.59026ZM8.9225 11.9345C8.71016 11.9345 8.53698 12.1076 8.53698 12.32V12.8212C8.53698 13.0335 8.71016 13.2067 8.9225 13.2067H10.3634C10.5758 13.2067 10.7489 13.0335 10.7489 12.8212V12.32C10.7489 12.1076 10.5758 11.9345 10.3634 11.9345H8.9225ZM5.75636 11.9345C5.54401 11.9345 5.37084 12.1076 5.37084 12.32V12.8212C5.37084 13.0335 5.54401 13.2067 5.75636 13.2067H7.19728C7.40963 13.2067 7.5828 13.0335 7.5828 12.8212V12.32C7.5828 12.1076 7.40963 11.9345 7.19728 11.9345H5.75636ZM2.59026 11.9345C2.37791 11.9345 2.20473 12.1076 2.20473 12.32V12.8212C2.20473 13.0335 2.37791 13.2067 2.59026 13.2067H4.03117C4.24352 13.2067 4.41669 13.0335 4.41669 12.8212V12.32C4.41669 12.1076 4.24352 11.9345 4.03117 11.9345H2.59026ZM8.9225 9.23097C8.71016 9.23097 8.53698 9.40415 8.53698 9.6165V10.1177C8.53698 10.33 8.71016 10.5032 8.9225 10.5032H10.3634C10.5758 10.5032 10.7489 10.33 10.7489 10.1177V9.6165C10.7489 9.40415 10.5758 9.23097 10.3634 9.23097H8.9225ZM5.75636 9.23097C5.54401 9.23097 5.37084 9.40415 5.37084 9.6165V10.1177C5.37084 10.33 5.54401 10.5032 5.75636 10.5032H7.19728C7.40963 10.5032 7.5828 10.33 7.5828 10.1177V9.6165C7.5828 9.40415 7.40963 9.23097 7.19728 9.23097H5.75636ZM2.59026 9.23097C2.37791 9.23097 2.20473 9.40415 2.20473 9.6165V10.1177C2.20473 10.33 2.37791 10.5032 2.59026 10.5032H4.03117C4.24352 10.5032 4.41669 10.33 4.41669 10.1177V9.6165C4.41669 9.40415 4.24352 9.23097 4.03117 9.23097H2.59026ZM8.9225 6.52744C8.71016 6.52744 8.53698 6.70062 8.53698 6.91297V7.41416C8.53698 7.62651 8.71016 7.79969 8.9225 7.79969H10.3634C10.5758 7.79969 10.7489 7.62651 10.7489 7.41416V6.91297C10.7489 6.70062 10.5758 6.52744 10.3634 6.52744H8.9225ZM5.75636 6.52744C5.54401 6.52744 5.37084 6.70062 5.37084 6.91297V7.41416C5.37084 7.62651 5.54401 7.79969 5.75636 7.79969H7.19728C7.40963 7.79969 7.5828 7.62651 7.5828 7.41416V6.91297C7.5828 6.70062 7.40963 6.52744 7.19728 6.52744H5.75636Z" fill="#3D3D3D"/>
</svg>
