<svg xmlns="http://www.w3.org/2000/svg" width="58" height="58" viewBox="0 0 58 58"><defs><style>.a{fill:#f5faff;}.b{fill:#0075d6;}</style></defs><rect class="a" width="58" height="58" rx="16"/><path class="b" d="M15.73,3.347l3.524,3.524a.382.382,0,0,1,0,.539l-8.533,8.533-3.626.4a.76.76,0,0,1-.84-.84l.4-3.626L15.19,3.347a.382.382,0,0,1,.539,0Zm6.329-.895L20.152.545A1.528,1.528,0,0,0,18,.545L16.613,1.928a.382.382,0,0,0,0,.539l3.524,3.524a.382.382,0,0,0,.539,0l1.383-1.383A1.528,1.528,0,0,0,22.059,2.452ZM15,13.622V17.6H2.5V5.1h8.978a.48.48,0,0,0,.332-.137L13.374,3.4a.469.469,0,0,0-.332-.8H1.875A1.876,1.876,0,0,0,0,4.472V18.225A1.876,1.876,0,0,0,1.875,20.1H15.628A1.876,1.876,0,0,0,17.5,18.225V12.059a.47.47,0,0,0-.8-.332L15.14,13.29A.48.48,0,0,0,15,13.622Z" transform="translate(18 18.9)"/></svg>