<svg width="18" height="17" viewBox="0 0 18 17" fill="none" xmlns="http://www.w3.org/2000/svg">
<path d="M5.55937 8.4C4.54688 8.43125 3.71875 8.83125 3.075 9.6H1.81875C1.30625 9.6 0.875 9.47344 0.525 9.22031C0.175 8.96719 0 8.59687 0 8.10938C0 5.90312 0.3875 4.8 1.1625 4.8C1.2 4.8 1.33594 4.86562 1.57031 4.99687C1.80469 5.12813 2.10938 5.26094 2.48438 5.39531C2.85938 5.52969 3.23125 5.59688 3.6 5.59688C4.01875 5.59688 4.43437 5.525 4.84687 5.38125C4.81562 5.6125 4.8 5.81875 4.8 6C4.8 6.86875 5.05312 7.66875 5.55937 8.4ZM15.6 14.3719C15.6 15.1219 15.3719 15.7141 14.9156 16.1484C14.4594 16.5828 13.8531 16.8 13.0969 16.8H4.90312C4.14687 16.8 3.54063 16.5828 3.08438 16.1484C2.62812 15.7141 2.4 15.1219 2.4 14.3719C2.4 14.0406 2.41094 13.7172 2.43281 13.4016C2.45469 13.0859 2.49844 12.7453 2.56406 12.3797C2.62969 12.0141 2.7125 11.675 2.8125 11.3625C2.9125 11.05 3.04688 10.7453 3.21563 10.4484C3.38437 10.1516 3.57812 9.89844 3.79688 9.68906C4.01562 9.47969 4.28281 9.3125 4.59844 9.1875C4.91406 9.0625 5.2625 9 5.64375 9C5.70625 9 5.84062 9.06719 6.04688 9.20156C6.25312 9.33594 6.48125 9.48594 6.73125 9.65156C6.98125 9.81719 7.31562 9.96719 7.73438 10.1016C8.15312 10.2359 8.575 10.3031 9 10.3031C9.425 10.3031 9.84688 10.2359 10.2656 10.1016C10.6844 9.96719 11.0188 9.81719 11.2688 9.65156C11.5188 9.48594 11.7469 9.33594 11.9531 9.20156C12.1594 9.06719 12.2937 9 12.3562 9C12.7375 9 13.0859 9.0625 13.4016 9.1875C13.7172 9.3125 13.9844 9.47969 14.2031 9.68906C14.4219 9.89844 14.6156 10.1516 14.7844 10.4484C14.9531 10.7453 15.0875 11.05 15.1875 11.3625C15.2875 11.675 15.3703 12.0141 15.4359 12.3797C15.5016 12.7453 15.5453 13.0859 15.5672 13.4016C15.5891 13.7172 15.6 14.0406 15.6 14.3719ZM6 2.4C6 3.0625 5.76562 3.62812 5.29687 4.09688C4.82812 4.56563 4.2625 4.8 3.6 4.8C2.9375 4.8 2.37188 4.56563 1.90313 4.09688C1.43438 3.62812 1.2 3.0625 1.2 2.4C1.2 1.7375 1.43438 1.17188 1.90313 0.703125C2.37188 0.234375 2.9375 0 3.6 0C4.2625 0 4.82812 0.234375 5.29687 0.703125C5.76562 1.17188 6 1.7375 6 2.4ZM12.6 6C12.6 6.99375 12.2484 7.84219 11.5453 8.54531C10.8422 9.24844 9.99375 9.6 9 9.6C8.00625 9.6 7.15781 9.24844 6.45469 8.54531C5.75156 7.84219 5.4 6.99375 5.4 6C5.4 5.00625 5.75156 4.15781 6.45469 3.45469C7.15781 2.75156 8.00625 2.4 9 2.4C9.99375 2.4 10.8422 2.75156 11.5453 3.45469C12.2484 4.15781 12.6 5.00625 12.6 6ZM18 8.10938C18 8.59687 17.825 8.96719 17.475 9.22031C17.125 9.47344 16.6938 9.6 16.1812 9.6H14.925C14.2812 8.83125 13.4531 8.43125 12.4406 8.4C12.9469 7.66875 13.2 6.86875 13.2 6C13.2 5.81875 13.1844 5.6125 13.1531 5.38125C13.5656 5.525 13.9812 5.59688 14.4 5.59688C14.7688 5.59688 15.1406 5.52969 15.5156 5.39531C15.8906 5.26094 16.1953 5.12813 16.4297 4.99687C16.6641 4.86562 16.8 4.8 16.8375 4.8C17.6125 4.8 18 5.90312 18 8.10938ZM16.8 2.4C16.8 3.0625 16.5656 3.62812 16.0969 4.09688C15.6281 4.56563 15.0625 4.8 14.4 4.8C13.7375 4.8 13.1719 4.56563 12.7031 4.09688C12.2344 3.62812 12 3.0625 12 2.4C12 1.7375 12.2344 1.17188 12.7031 0.703125C13.1719 0.234375 13.7375 0 14.4 0C15.0625 0 15.6281 0.234375 16.0969 0.703125C16.5656 1.17188 16.8 1.7375 16.8 2.4Z" fill="#3D3D3D"/>
</svg>
