<svg width="32" height="24" viewBox="0 0 32 24" fill="none" xmlns="http://www.w3.org/2000/svg">
<path d="M31.6275 11.2083C30.6142 9.45083 25.0409 0.631667 15.5725 0.916667C6.81669 1.13833 1.75003 8.83333 0.372527 11.2083C0.23356 11.449 0.1604 11.7221 0.1604 12C0.1604 12.2779 0.23356 12.551 0.372527 12.7917C1.37003 14.5175 6.70586 23.0833 16.0317 23.0833H16.4275C25.1834 22.8617 30.2659 15.1667 31.6275 12.7917C31.7665 12.551 31.8397 12.2779 31.8397 12C31.8397 11.7221 31.7665 11.449 31.6275 11.2083ZM16 17.5417C14.904 17.5417 13.8326 17.2167 12.9212 16.6077C12.0099 15.9988 11.2996 15.1333 10.8802 14.1207C10.4608 13.1081 10.351 11.9939 10.5648 10.9189C10.7787 9.8439 11.3065 8.85647 12.0815 8.08145C12.8565 7.30643 13.8439 6.77864 14.9189 6.56481C15.9939 6.35099 17.1081 6.46073 18.1207 6.88017C19.1333 7.2996 19.9988 8.00989 20.6078 8.92122C21.2167 9.83254 21.5417 10.904 21.5417 12C21.5417 13.4697 20.9578 14.8793 19.9186 15.9185C18.8793 16.9578 17.4698 17.5417 16 17.5417Z" fill="#0075D6"/>
</svg>
