<svg xmlns="http://www.w3.org/2000/svg" width="50" height="50.027" viewBox="0 0 50 50.027"><defs><style>.a{fill:#0075d6;}</style></defs><path class="a" d="M68.6,297.132H91.132V274.6H68.6Zm5-17.529H86.129v12.527H73.6Z" transform="translate(-68.6 -247.105)"/><path class="a" d="M68.6,91.005H91.132V68.5H68.6Zm5-17.5H86.129V86H73.6Z" transform="translate(-68.6 -68.5)"/><path class="a" d="M297.725,278.535,294.19,275l-7.684,7.684L278.835,275l-3.535,3.535,7.671,7.684L275.3,293.9l3.535,3.535,7.671-7.684,7.684,7.684,3.535-3.535-7.684-7.684Z" transform="translate(-247.725 -247.452)"/><path class="a" d="M293.319,96.235,289.783,92.7l-10.752,10.752-4.5-4.5L271,102.492l8.031,8.031Z" transform="translate(-243.999 -89.472)"/></svg>