<svg width="15" height="18" viewBox="0 0 15 18" fill="none" xmlns="http://www.w3.org/2000/svg">
<path d="M13.4061 3.70194C13.3703 3.70194 13.3077 3.70194 13.272 3.71088C12.7712 3.76453 12.3599 4.22057 12.3599 4.72131V7.85991C12.3599 8.11028 12.2616 8.38748 12.0112 8.38748H12.0022C11.725 8.38748 11.3674 8.10134 11.3674 7.82414V2.7541C11.3674 2.24441 11.0633 1.79732 10.5626 1.74367C10.5537 1.74367 10.5894 1.74367 10.5805 1.74367C10.5447 1.74367 10.4642 1.73472 10.4374 1.73472C9.89195 1.73472 9.39121 2.18182 9.39121 2.72727V7.84203C9.39121 8.11028 9.16766 8.31595 8.8994 8.31595C8.63115 8.31595 8.39866 8.10134 8.39866 7.83309V1.01937C8.39866 0.509687 8.10358 0.0625932 7.60283 0.00894191C7.56706 0.00894191 7.49553 0 7.45082 0C6.90537 0 6.4225 0.447094 6.4225 0.992549V7.84203C6.4225 8.11028 6.19001 8.32489 5.92176 8.32489C5.6535 8.32489 5.42996 8.11028 5.42996 7.85097V2.7541C5.42996 2.24441 5.14382 1.78838 4.63413 1.72578C4.59836 1.72578 4.63413 1.7079 4.59836 1.7079C4.05291 1.7079 3.4538 2.17288 3.4538 2.71833V10.0954C3.4538 10.1311 3.51639 10.1669 3.51639 10.1937C3.47168 10.4083 3.31967 10.5514 3.11401 10.5514C3.00671 10.5514 2.91729 10.5156 2.82787 10.4262L1.66542 9.31744C1.47765 9.12966 1.22727 9.0313 0.9769 9.0313C0.941133 9.0313 0.914307 9.0313 0.887481 9.0313C0.663935 9.04918 0.458271 9.14754 0.288376 9.31744C-0.0961252 9.70194 -0.0961252 10.3189 0.288376 10.7034L4.46423 16.2116L4.57154 17.6066C4.58942 17.8212 4.76826 18 4.98286 18L12.2794 17.9911C12.4851 17.9911 12.6639 17.8301 12.6908 17.6244L12.6997 17.544L12.8696 16.1669C12.8785 16.1133 12.8875 16.0596 12.9143 16.006C12.9143 15.997 12.8785 15.997 12.8785 15.9881C13.9963 14.2534 14.3092 11.392 14.3092 8.28912V4.69449C14.3361 4.14009 13.9516 3.70194 13.4061 3.70194Z" fill="#3D3D3D"/>
</svg>
