<svg xmlns="http://www.w3.org/2000/svg" width="66" height="66" viewBox="0 0 66 66"><defs><style>.a{fill:none;}.b{fill:#0075d6;}</style></defs><path class="a" d="M0,0H66V66H0Z"/><g transform="translate(11 8.25)"><path class="b" d="M23.25,30.5v-11a2.758,2.758,0,0,0-2.75-2.75H9.5v-5.5h11a2.75,2.75,0,0,0,0-5.5H16.375a2.75,2.75,0,0,0-5.5,0H6.75A2.758,2.758,0,0,0,4,8.5v11a2.758,2.758,0,0,0,2.75,2.75h11v5.5h-11a2.75,2.75,0,1,0,0,5.5h4.125a2.75,2.75,0,0,0,5.5,0H20.5A2.758,2.758,0,0,0,23.25,30.5Z" transform="translate(-4 -3)"/><path class="b" d="M34.232,13.732,20.619,27.344l-5.83-5.83a2.739,2.739,0,0,0-3.877,0h0a2.739,2.739,0,0,0,0,3.877l7.782,7.782a2.739,2.739,0,0,0,3.877,0L38.137,17.609a2.739,2.739,0,0,0,0-3.877h0A2.772,2.772,0,0,0,34.232,13.732Z" transform="translate(6.688 14.373)"/></g></svg>