<svg width="18" height="18" viewBox="0 0 18 18" fill="none" xmlns="http://www.w3.org/2000/svg">
<path d="M0.0258103 6.2287C0.418522 5.01939 1.06543 3.90932 1.91902 2.96856C2.06336 2.80948 2.28981 2.75277 2.49256 2.82496L4.53246 3.55121C5.0855 3.748 5.69404 3.46112 5.89168 2.91045C5.91111 2.85629 5.92608 2.80067 5.93642 2.74419L6.32505 0.620187C6.36369 0.409006 6.52658 0.241956 6.73745 0.197256C7.35442 0.0665021 7.98701 0 8.62788 0C9.26837 0 9.90058 0.0664272 10.5172 0.197016C10.728 0.241671 10.8909 0.408616 10.9296 0.619722L11.3193 2.7441C11.4247 3.31938 11.9784 3.70069 12.5563 3.59579C12.6131 3.58546 12.6689 3.57056 12.7233 3.55124L14.7632 2.82496C14.9659 2.75277 15.1923 2.80948 15.3367 2.96856C16.1903 3.90932 16.8372 5.01939 17.23 6.2287C17.2962 6.43271 17.2323 6.65637 17.0681 6.79514L15.4147 8.19289C14.9671 8.57139 14.9123 9.23958 15.2924 9.68533C15.3298 9.72916 15.3707 9.76988 15.4147 9.80708L17.0681 11.2048C17.2323 11.3436 17.2962 11.5673 17.23 11.7713C16.8372 12.9807 16.1903 14.0907 15.3367 15.0314C15.1923 15.1905 14.9659 15.2472 14.7632 15.175L12.7233 14.4488C12.1703 14.252 11.5617 14.5389 11.3641 15.0895C11.3447 15.1436 11.3297 15.1993 11.3193 15.256L10.9296 17.3803C10.8909 17.5914 10.728 17.7583 10.5172 17.803C9.90058 17.9335 9.26837 18 8.62788 18C7.98701 18 7.35442 17.9335 6.73745 17.8027C6.52658 17.758 6.36369 17.591 6.32505 17.3798L5.93644 15.2559C5.83107 14.6806 5.2773 14.2993 4.69953 14.4042C4.6427 14.4146 4.58684 14.4294 4.53255 14.4488L2.49256 15.175C2.28981 15.2472 2.06336 15.1905 1.91902 15.0314C1.06543 14.0907 0.418522 12.9807 0.0258103 11.7713C-0.0404369 11.5673 0.0234392 11.3436 0.187609 11.2048L1.84101 9.8071C2.28869 9.4286 2.34344 8.76041 1.96332 8.31465C1.92594 8.27082 1.88504 8.2301 1.84103 8.1929L0.187609 6.79514C0.0234392 6.65637 -0.0404369 6.43271 0.0258103 6.2287ZM6.00183 8.9999C6.00183 10.4501 7.17747 11.6258 8.6277 11.6258C10.0779 11.6258 11.2536 10.4501 11.2536 8.9999C11.2536 7.54967 10.0779 6.37402 8.6277 6.37402C7.17747 6.37402 6.00183 7.54967 6.00183 8.9999Z" fill="#3D3D3D"/>
</svg>
