<svg width="308" height="41" viewBox="0 0 308 41" fill="none" xmlns="http://www.w3.org/2000/svg">
<rect x="0.5" y="0.5" width="307" height="40" rx="15.5" fill="white" stroke="#D5D5D5"/>
<path d="M33.357 28.6441L33.3579 28.645C33.4048 28.6915 33.442 28.7468 33.4673 28.8077C33.4927 28.8686 33.5058 28.934 33.5058 29C33.5058 29.066 33.4927 29.1314 33.4673 29.1923C33.442 29.2532 33.4048 29.3085 33.3579 29.355L33.355 29.3579C33.3085 29.4048 33.2532 29.442 33.1923 29.4673C33.1314 29.4927 33.066 29.5058 33 29.5058C32.934 29.5058 32.8686 29.4927 32.8077 29.4673C32.7468 29.442 32.6915 29.4048 32.645 29.3579L32.6441 29.357L29.2541 25.957L28.9406 25.6425L28.5913 25.9167C27.282 26.9444 25.6651 27.5021 24.0006 27.5H24C22.5166 27.5 21.0666 27.0601 19.8332 26.236C18.5999 25.4119 17.6386 24.2406 17.0709 22.8701C16.5032 21.4997 16.3547 19.9917 16.6441 18.5368C16.9335 17.082 17.6478 15.7456 18.6967 14.6967C19.7456 13.6478 21.082 12.9335 22.5368 12.6441C23.9917 12.3547 25.4997 12.5032 26.8701 13.0709C28.2406 13.6386 29.4119 14.5999 30.236 15.8332C31.0601 17.0666 31.5 18.5166 31.5 20V20.0006C31.5021 21.6651 30.9444 23.282 29.9167 24.5913L29.6425 24.9406L29.957 25.2541L33.357 28.6441ZM18.5955 16.3888C17.8812 17.4577 17.5 18.7144 17.5 20C17.5 21.7239 18.1848 23.3772 19.4038 24.5962C20.6228 25.8152 22.2761 26.5 24 26.5C25.2856 26.5 26.5423 26.1188 27.6112 25.4046C28.6801 24.6903 29.5133 23.6752 30.0052 22.4874C30.4972 21.2997 30.6259 19.9928 30.3751 18.7319C30.1243 17.471 29.5052 16.3129 28.5962 15.4038C27.6872 14.4948 26.529 13.8757 25.2681 13.6249C24.0072 13.3741 22.7003 13.5028 21.5126 13.9948C20.3248 14.4868 19.3097 15.3199 18.5955 16.3888Z" fill="#D5D5D5" stroke="#D5D5D5"/>
<path d="M52.9739 22.045V26H51.0909V15.878H54.1779C54.8685 15.878 55.4589 15.9503 55.9489 16.095C56.4435 16.235 56.8472 16.4333 57.1599 16.69C57.4772 16.9467 57.7082 17.2547 57.8529 17.614C58.0022 17.9687 58.0769 18.3607 58.0769 18.79C58.0769 19.1307 58.0255 19.4527 57.9229 19.756C57.8249 20.0593 57.6802 20.3347 57.4889 20.582C57.3022 20.8293 57.0689 21.0463 56.7889 21.233C56.5135 21.4197 56.1985 21.569 55.8439 21.681C56.0819 21.8163 56.2872 22.01 56.4599 22.262L58.9939 26H57.2999C57.1365 26 56.9965 25.9673 56.8799 25.902C56.7679 25.8367 56.6722 25.7433 56.5929 25.622L54.4649 22.381C54.3855 22.2597 54.2969 22.1733 54.1989 22.122C54.1055 22.0707 53.9655 22.045 53.7789 22.045H52.9739ZM52.9739 20.694H54.1499C54.5045 20.694 54.8125 20.6497 55.0739 20.561C55.3399 20.4723 55.5569 20.351 55.7249 20.197C55.8975 20.0383 56.0259 19.8517 56.1099 19.637C56.1939 19.4223 56.2359 19.1867 56.2359 18.93C56.2359 18.4167 56.0655 18.0223 55.7249 17.747C55.3889 17.4717 54.8732 17.334 54.1779 17.334H52.9739V20.694ZM63.0717 18.706C63.5244 18.706 63.9397 18.7783 64.3177 18.923C64.7004 19.0677 65.0294 19.28 65.3047 19.56C65.58 19.8353 65.7947 20.176 65.9487 20.582C66.1027 20.9833 66.1797 21.443 66.1797 21.961C66.1797 22.0917 66.1727 22.2013 66.1587 22.29C66.1494 22.374 66.1284 22.4417 66.0957 22.493C66.0677 22.5397 66.028 22.5747 65.9767 22.598C65.9254 22.6167 65.86 22.626 65.7807 22.626H61.3427C61.394 23.3633 61.5924 23.9047 61.9377 24.25C62.283 24.5953 62.7404 24.768 63.3097 24.768C63.5897 24.768 63.83 24.7353 64.0307 24.67C64.236 24.6047 64.4134 24.5323 64.5627 24.453C64.7167 24.3737 64.8497 24.3013 64.9617 24.236C65.0784 24.1707 65.1904 24.138 65.2977 24.138C65.3677 24.138 65.4284 24.152 65.4797 24.18C65.531 24.208 65.5754 24.2477 65.6127 24.299L66.1167 24.929C65.9254 25.153 65.7107 25.342 65.4727 25.496C65.2347 25.6453 64.985 25.7667 64.7237 25.86C64.467 25.9487 64.2034 26.0117 63.9327 26.049C63.6667 26.0863 63.4077 26.105 63.1557 26.105C62.6564 26.105 62.192 26.0233 61.7627 25.86C61.3334 25.692 60.96 25.447 60.6427 25.125C60.3254 24.7983 60.0757 24.397 59.8937 23.921C59.7117 23.4403 59.6207 22.885 59.6207 22.255C59.6207 21.765 59.7 21.3053 59.8587 20.876C60.0174 20.442 60.2437 20.0663 60.5377 19.749C60.8364 19.427 61.198 19.1727 61.6227 18.986C62.052 18.7993 62.535 18.706 63.0717 18.706ZM63.1067 19.945C62.6027 19.945 62.2084 20.0873 61.9237 20.372C61.639 20.6567 61.457 21.0603 61.3777 21.583H64.6257C64.6257 21.359 64.5954 21.149 64.5347 20.953C64.474 20.7523 64.3807 20.5773 64.2547 20.428C64.1287 20.2787 63.97 20.162 63.7787 20.078C63.5874 19.9893 63.3634 19.945 63.1067 19.945ZM72.6292 20.337C72.5779 20.4023 72.5265 20.4537 72.4752 20.491C72.4285 20.5283 72.3585 20.547 72.2652 20.547C72.1765 20.547 72.0902 20.5213 72.0062 20.47C71.9222 20.414 71.8219 20.3533 71.7052 20.288C71.5885 20.218 71.4485 20.1573 71.2852 20.106C71.1265 20.05 70.9282 20.022 70.6902 20.022C70.3869 20.022 70.1209 20.078 69.8922 20.19C69.6635 20.2973 69.4722 20.4537 69.3182 20.659C69.1689 20.8643 69.0569 21.114 68.9822 21.408C68.9075 21.6973 68.8702 22.0263 68.8702 22.395C68.8702 22.7777 68.9099 23.1183 68.9892 23.417C69.0732 23.7157 69.1922 23.9677 69.3462 24.173C69.5002 24.3737 69.6869 24.5277 69.9062 24.635C70.1255 24.7377 70.3729 24.789 70.6482 24.789C70.9235 24.789 71.1452 24.7563 71.3132 24.691C71.4859 24.621 71.6305 24.5463 71.7472 24.467C71.8639 24.383 71.9642 24.3083 72.0482 24.243C72.1369 24.173 72.2349 24.138 72.3422 24.138C72.4822 24.138 72.5872 24.1917 72.6572 24.299L73.1542 24.929C72.9629 25.153 72.7552 25.342 72.5312 25.496C72.3072 25.6453 72.0739 25.7667 71.8312 25.86C71.5932 25.9487 71.3459 26.0117 71.0892 26.049C70.8325 26.0863 70.5782 26.105 70.3262 26.105C69.8829 26.105 69.4652 26.0233 69.0732 25.86C68.6812 25.692 68.3382 25.4493 68.0442 25.132C67.7549 24.8147 67.5239 24.4273 67.3512 23.97C67.1832 23.508 67.0992 22.983 67.0992 22.395C67.0992 21.8677 67.1739 21.38 67.3232 20.932C67.4772 20.4793 67.7012 20.0897 67.9952 19.763C68.2892 19.4317 68.6532 19.1727 69.0872 18.986C69.5212 18.7993 70.0205 18.706 70.5852 18.706C71.1219 18.706 71.5909 18.7923 71.9922 18.965C72.3982 19.1377 72.7622 19.385 73.0842 19.707L72.6292 20.337ZM74.2541 26V15.598H75.9831V19.595C76.2631 19.329 76.5711 19.1143 76.9071 18.951C77.2431 18.7877 77.6374 18.706 78.0901 18.706C78.4821 18.706 78.8297 18.7737 79.1331 18.909C79.4364 19.0397 79.6884 19.2263 79.8891 19.469C80.0944 19.707 80.2484 19.994 80.3511 20.33C80.4584 20.6613 80.5121 21.0277 80.5121 21.429V26H78.7831V21.429C78.7831 20.9903 78.6804 20.652 78.4751 20.414C78.2744 20.1713 77.9711 20.05 77.5651 20.05C77.2664 20.05 76.9864 20.1177 76.7251 20.253C76.4637 20.3883 76.2164 20.5727 75.9831 20.806V26H74.2541ZM85.1791 18.706C85.6318 18.706 86.0471 18.7783 86.4251 18.923C86.8078 19.0677 87.1368 19.28 87.4121 19.56C87.6874 19.8353 87.9021 20.176 88.0561 20.582C88.2101 20.9833 88.2871 21.443 88.2871 21.961C88.2871 22.0917 88.2801 22.2013 88.2661 22.29C88.2568 22.374 88.2358 22.4417 88.2031 22.493C88.1751 22.5397 88.1354 22.5747 88.0841 22.598C88.0328 22.6167 87.9674 22.626 87.8881 22.626H83.4501C83.5014 23.3633 83.6998 23.9047 84.0451 24.25C84.3904 24.5953 84.8478 24.768 85.4171 24.768C85.6971 24.768 85.9374 24.7353 86.1381 24.67C86.3434 24.6047 86.5208 24.5323 86.6701 24.453C86.8241 24.3737 86.9571 24.3013 87.0691 24.236C87.1858 24.1707 87.2978 24.138 87.4051 24.138C87.4751 24.138 87.5358 24.152 87.5871 24.18C87.6384 24.208 87.6828 24.2477 87.7201 24.299L88.2241 24.929C88.0328 25.153 87.8181 25.342 87.5801 25.496C87.3421 25.6453 87.0924 25.7667 86.8311 25.86C86.5744 25.9487 86.3108 26.0117 86.0401 26.049C85.7741 26.0863 85.5151 26.105 85.2631 26.105C84.7638 26.105 84.2994 26.0233 83.8701 25.86C83.4408 25.692 83.0674 25.447 82.7501 25.125C82.4328 24.7983 82.1831 24.397 82.0011 23.921C81.8191 23.4403 81.7281 22.885 81.7281 22.255C81.7281 21.765 81.8074 21.3053 81.9661 20.876C82.1248 20.442 82.3511 20.0663 82.6451 19.749C82.9438 19.427 83.3054 19.1727 83.7301 18.986C84.1594 18.7993 84.6424 18.706 85.1791 18.706ZM85.2141 19.945C84.7101 19.945 84.3158 20.0873 84.0311 20.372C83.7464 20.6567 83.5644 21.0603 83.4851 21.583H86.7331C86.7331 21.359 86.7028 21.149 86.6421 20.953C86.5814 20.7523 86.4881 20.5773 86.3621 20.428C86.2361 20.2787 86.0774 20.162 85.8861 20.078C85.6948 19.9893 85.4708 19.945 85.2141 19.945ZM89.6896 26V18.818H90.7046C90.882 18.818 91.0056 18.8507 91.0756 18.916C91.1456 18.9813 91.1923 19.0933 91.2156 19.252L91.3206 20.12C91.5773 19.6767 91.8783 19.3267 92.2236 19.07C92.569 18.8133 92.9563 18.685 93.3856 18.685C93.7403 18.685 94.0343 18.7667 94.2676 18.93L94.0436 20.225C94.0296 20.309 93.9993 20.3697 93.9526 20.407C93.906 20.4397 93.843 20.456 93.7636 20.456C93.6936 20.456 93.598 20.4397 93.4766 20.407C93.3553 20.3743 93.1943 20.358 92.9936 20.358C92.6343 20.358 92.3263 20.4583 92.0696 20.659C91.813 20.855 91.596 21.1443 91.4186 21.527V26H89.6896ZM100.451 20.337C100.4 20.4023 100.349 20.4537 100.297 20.491C100.251 20.5283 100.181 20.547 100.087 20.547C99.9988 20.547 99.9125 20.5213 99.8285 20.47C99.7445 20.414 99.6441 20.3533 99.5275 20.288C99.4108 20.218 99.2708 20.1573 99.1075 20.106C98.9488 20.05 98.7505 20.022 98.5125 20.022C98.2091 20.022 97.9431 20.078 97.7145 20.19C97.4858 20.2973 97.2945 20.4537 97.1405 20.659C96.9911 20.8643 96.8791 21.114 96.8045 21.408C96.7298 21.6973 96.6925 22.0263 96.6925 22.395C96.6925 22.7777 96.7321 23.1183 96.8115 23.417C96.8955 23.7157 97.0145 23.9677 97.1685 24.173C97.3225 24.3737 97.5091 24.5277 97.7285 24.635C97.9478 24.7377 98.1951 24.789 98.4705 24.789C98.7458 24.789 98.9675 24.7563 99.1355 24.691C99.3081 24.621 99.4528 24.5463 99.5695 24.467C99.6861 24.383 99.7865 24.3083 99.8705 24.243C99.9591 24.173 100.057 24.138 100.164 24.138C100.304 24.138 100.409 24.1917 100.479 24.299L100.976 24.929C100.785 25.153 100.577 25.342 100.353 25.496C100.129 25.6453 99.8961 25.7667 99.6535 25.86C99.4155 25.9487 99.1681 26.0117 98.9115 26.049C98.6548 26.0863 98.4005 26.105 98.1485 26.105C97.7051 26.105 97.2875 26.0233 96.8955 25.86C96.5035 25.692 96.1605 25.4493 95.8665 25.132C95.5771 24.8147 95.3461 24.4273 95.1735 23.97C95.0055 23.508 94.9215 22.983 94.9215 22.395C94.9215 21.8677 94.9961 21.38 95.1455 20.932C95.2995 20.4793 95.5235 20.0897 95.8175 19.763C96.1115 19.4317 96.4755 19.1727 96.9095 18.986C97.3435 18.7993 97.8428 18.706 98.4075 18.706C98.9441 18.706 99.4131 18.7923 99.8145 18.965C100.22 19.1377 100.584 19.385 100.906 19.707L100.451 20.337ZM102.076 26V15.598H103.805V19.595C104.085 19.329 104.393 19.1143 104.729 18.951C105.065 18.7877 105.46 18.706 105.912 18.706C106.304 18.706 106.652 18.7737 106.955 18.909C107.259 19.0397 107.511 19.2263 107.711 19.469C107.917 19.707 108.071 19.994 108.173 20.33C108.281 20.6613 108.334 21.0277 108.334 21.429V26H106.605V21.429C106.605 20.9903 106.503 20.652 106.297 20.414C106.097 20.1713 105.793 20.05 105.387 20.05C105.089 20.05 104.809 20.1177 104.547 20.253C104.286 20.3883 104.039 20.5727 103.805 20.806V26H102.076ZM113.001 18.706C113.454 18.706 113.869 18.7783 114.247 18.923C114.63 19.0677 114.959 19.28 115.234 19.56C115.51 19.8353 115.724 20.176 115.878 20.582C116.032 20.9833 116.109 21.443 116.109 21.961C116.109 22.0917 116.102 22.2013 116.088 22.29C116.079 22.374 116.058 22.4417 116.025 22.493C115.997 22.5397 115.958 22.5747 115.906 22.598C115.855 22.6167 115.79 22.626 115.71 22.626H111.272C111.324 23.3633 111.522 23.9047 111.867 24.25C112.213 24.5953 112.67 24.768 113.239 24.768C113.519 24.768 113.76 24.7353 113.96 24.67C114.166 24.6047 114.343 24.5323 114.492 24.453C114.646 24.3737 114.779 24.3013 114.891 24.236C115.008 24.1707 115.12 24.138 115.227 24.138C115.297 24.138 115.358 24.152 115.409 24.18C115.461 24.208 115.505 24.2477 115.542 24.299L116.046 24.929C115.855 25.153 115.64 25.342 115.402 25.496C115.164 25.6453 114.915 25.7667 114.653 25.86C114.397 25.9487 114.133 26.0117 113.862 26.049C113.596 26.0863 113.337 26.105 113.085 26.105C112.586 26.105 112.122 26.0233 111.692 25.86C111.263 25.692 110.89 25.447 110.572 25.125C110.255 24.7983 110.005 24.397 109.823 23.921C109.641 23.4403 109.55 22.885 109.55 22.255C109.55 21.765 109.63 21.3053 109.788 20.876C109.947 20.442 110.173 20.0663 110.467 19.749C110.766 19.427 111.128 19.1727 111.552 18.986C111.982 18.7993 112.465 18.706 113.001 18.706ZM113.036 19.945C112.532 19.945 112.138 20.0873 111.853 20.372C111.569 20.6567 111.387 21.0603 111.307 21.583H114.555C114.555 21.359 114.525 21.149 114.464 20.953C114.404 20.7523 114.31 20.5773 114.184 20.428C114.058 20.2787 113.9 20.162 113.708 20.078C113.517 19.9893 113.293 19.945 113.036 19.945ZM117.099 25.048C117.099 24.9033 117.125 24.7657 117.176 24.635C117.232 24.5043 117.307 24.3923 117.4 24.299C117.498 24.2057 117.612 24.131 117.743 24.075C117.874 24.019 118.014 23.991 118.163 23.991C118.308 23.991 118.445 24.019 118.576 24.075C118.707 24.131 118.819 24.2057 118.912 24.299C119.005 24.3923 119.08 24.5043 119.136 24.635C119.192 24.7657 119.22 24.9033 119.22 25.048C119.22 25.1973 119.192 25.3373 119.136 25.468C119.08 25.594 119.005 25.7037 118.912 25.797C118.819 25.8903 118.707 25.9627 118.576 26.014C118.445 26.07 118.308 26.098 118.163 26.098C118.014 26.098 117.874 26.07 117.743 26.014C117.612 25.9627 117.498 25.8903 117.4 25.797C117.307 25.7037 117.232 25.594 117.176 25.468C117.125 25.3373 117.099 25.1973 117.099 25.048ZM120.243 25.048C120.243 24.9033 120.269 24.7657 120.32 24.635C120.376 24.5043 120.451 24.3923 120.544 24.299C120.642 24.2057 120.757 24.131 120.887 24.075C121.018 24.019 121.158 23.991 121.307 23.991C121.452 23.991 121.59 24.019 121.72 24.075C121.851 24.131 121.963 24.2057 122.056 24.299C122.15 24.3923 122.224 24.5043 122.28 24.635C122.336 24.7657 122.364 24.9033 122.364 25.048C122.364 25.1973 122.336 25.3373 122.28 25.468C122.224 25.594 122.15 25.7037 122.056 25.797C121.963 25.8903 121.851 25.9627 121.72 26.014C121.59 26.07 121.452 26.098 121.307 26.098C121.158 26.098 121.018 26.07 120.887 26.014C120.757 25.9627 120.642 25.8903 120.544 25.797C120.451 25.7037 120.376 25.594 120.32 25.468C120.269 25.3373 120.243 25.1973 120.243 25.048ZM123.388 25.048C123.388 24.9033 123.414 24.7657 123.465 24.635C123.521 24.5043 123.596 24.3923 123.689 24.299C123.787 24.2057 123.901 24.131 124.032 24.075C124.163 24.019 124.303 23.991 124.452 23.991C124.597 23.991 124.734 24.019 124.865 24.075C124.996 24.131 125.108 24.2057 125.201 24.299C125.294 24.3923 125.369 24.5043 125.425 24.635C125.481 24.7657 125.509 24.9033 125.509 25.048C125.509 25.1973 125.481 25.3373 125.425 25.468C125.369 25.594 125.294 25.7037 125.201 25.797C125.108 25.8903 124.996 25.9627 124.865 26.014C124.734 26.07 124.597 26.098 124.452 26.098C124.303 26.098 124.163 26.07 124.032 26.014C123.901 25.9627 123.787 25.8903 123.689 25.797C123.596 25.7037 123.521 25.594 123.465 25.468C123.414 25.3373 123.388 25.1973 123.388 25.048Z" fill="#D5D5D5"/>
</svg>
