<svg xmlns="http://www.w3.org/2000/svg" width="26.862" height="26.876" viewBox="0 0 26.862 26.876"><defs><style>.a{fill:#001833;}</style></defs><path class="a" d="M68.6,286.705H80.705V274.6H68.6Zm2.688-9.417h6.73v6.73h-6.73Z" transform="translate(-68.6 -259.829)"/><path class="a" d="M68.6,80.591H80.705V68.5H68.6Zm2.688-9.4h6.73V77.9h-6.73Z" transform="translate(-68.6 -68.5)"/><path class="a" d="M287.348,276.9l-1.9-1.9-4.128,4.128L277.2,275l-1.9,1.9,4.121,4.128-4.121,4.128,1.9,1.9,4.121-4.128,4.128,4.128,1.9-1.9-4.128-4.128Z" transform="translate(-260.486 -260.2)"/><path class="a" d="M282.99,94.6l-1.9-1.9-5.777,5.777L272.9,96.061l-1.9,1.9,4.315,4.315Z" transform="translate(-256.494 -90.966)"/></svg>