<svg xmlns="http://www.w3.org/2000/svg" width="40" height="40" viewBox="0 0 40 40"><defs><style>.a{fill:none;}.b{fill:#001833;}</style></defs><g transform="translate(0.029 0.029)"><g transform="translate(0 0)"><rect class="a" width="40" height="40" transform="translate(-0.028 -0.029)"/><rect class="a" width="40" height="40" transform="translate(-0.028 -0.029)"/></g><g transform="translate(5.031 5.031)"><path class="b" d="M29.561,3H6.32A3.33,3.33,0,0,0,3,6.32v23.24a3.33,3.33,0,0,0,3.32,3.32h23.24a3.33,3.33,0,0,0,3.32-3.32V6.32A3.33,3.33,0,0,0,29.561,3ZM20.53,8.86h0a1.252,1.252,0,0,1,1.76,0l1.461,1.461L25.211,8.86a1.252,1.252,0,0,1,1.76,0h0a1.252,1.252,0,0,1,0,1.76L25.51,12.08l1.461,1.461a1.252,1.252,0,0,1,0,1.76h0a1.252,1.252,0,0,1-1.76,0L23.75,13.857,22.29,15.317a1.252,1.252,0,0,1-1.76,0h0a1.252,1.252,0,0,1,0-1.76L21.991,12.1,20.53,10.636A1.243,1.243,0,0,1,20.53,8.86ZM9.64,10.835h5.81A1.254,1.254,0,0,1,16.7,12.08h0a1.254,1.254,0,0,1-1.245,1.245H9.64A1.254,1.254,0,0,1,8.4,12.08h0A1.254,1.254,0,0,1,9.64,10.835ZM15.865,24.58H13.79v2.075A1.254,1.254,0,0,1,12.545,27.9h0A1.254,1.254,0,0,1,11.3,26.655V24.58H9.225A1.254,1.254,0,0,1,7.98,23.335h0A1.254,1.254,0,0,1,9.225,22.09H11.3V20.015a1.254,1.254,0,0,1,1.245-1.245h0a1.254,1.254,0,0,1,1.245,1.245V22.09h2.075a1.254,1.254,0,0,1,1.245,1.245h0A1.254,1.254,0,0,1,15.865,24.58Zm10.79,2.075h-5.81A1.254,1.254,0,0,1,19.6,25.41h0a1.254,1.254,0,0,1,1.245-1.245h5.81A1.254,1.254,0,0,1,27.9,25.41h0A1.254,1.254,0,0,1,26.655,26.655Zm0-4.15h-5.81A1.254,1.254,0,0,1,19.6,21.26h0a1.254,1.254,0,0,1,1.245-1.245h5.81A1.254,1.254,0,0,1,27.9,21.26h0A1.254,1.254,0,0,1,26.655,22.505Z" transform="translate(-3 -3)"/></g></g></svg>