<svg xmlns="http://www.w3.org/2000/svg" width="36.644" height="36.644" viewBox="0 0 36.644 36.644"><defs><style>.a{fill:none;}.b{fill:#001833;}</style></defs><path class="a" d="M0,0H36.644V36.644H0Z"/><g transform="translate(6.107 4.581)"><path class="b" d="M14.688,18.268V12.161a1.531,1.531,0,0,0-1.527-1.527H7.054V7.581h6.107a1.527,1.527,0,0,0,0-3.054h-2.29a1.527,1.527,0,1,0-3.054,0H5.527A1.531,1.531,0,0,0,4,6.054v6.107a1.531,1.531,0,0,0,1.527,1.527h6.107v3.054H5.527a1.527,1.527,0,0,0,0,3.054h2.29a1.527,1.527,0,0,0,3.054,0h2.29A1.531,1.531,0,0,0,14.688,18.268Z" transform="translate(-4 -3)"/><path class="b" d="M23.5,13.374l-7.558,7.558L12.707,17.7a1.521,1.521,0,0,0-2.153,0h0a1.521,1.521,0,0,0,0,2.153l4.321,4.321a1.521,1.521,0,0,0,2.153,0l8.642-8.642a1.521,1.521,0,0,0,0-2.153h0A1.539,1.539,0,0,0,23.5,13.374Z" transform="translate(-0.782 2.23)"/></g></svg>