<svg xmlns="http://www.w3.org/2000/svg" width="18.249" height="26.463" viewBox="0 0 18.249 26.463"><defs><style>.a{fill:#001833;}</style></defs><path class="a" d="M9.777,11.384V6.671a3.15,3.15,0,1,1,6.3,0v4.713a5.671,5.671,0,1,0-6.3,0ZM16.707,14.5a2.488,2.488,0,0,0-1.122-.265h-.769V6.671a1.89,1.89,0,0,0-3.78,0V20.2L6.7,19.3a1.416,1.416,0,0,0-1.3,2.382l5.053,5.053a2.57,2.57,0,0,0,1.789.731h7.687a2.513,2.513,0,0,0,2.5-2.167l.794-5.633a2.522,2.522,0,0,0-1.374-2.608Z" transform="translate(-4.997 -1)"/></svg>