<svg xmlns="http://www.w3.org/2000/svg" width="36" height="36" viewBox="0 0 36 36"><defs><style>.a{fill:none;}.b{fill:#001833;}</style></defs><g transform="translate(-0.296 -0.296)"><rect class="a" width="36" height="36" transform="translate(0.296 0.296)"/><path class="b" d="M15.776,9.944a1.535,1.535,0,0,0-1.531-1.531H3.531a1.531,1.531,0,0,0,0,3.061H14.246A1.535,1.535,0,0,0,15.776,9.944Zm0,12.246a1.535,1.535,0,0,0-1.531-1.531H3.531a1.531,1.531,0,0,0,0,3.061H14.246A1.535,1.535,0,0,0,15.776,22.189Zm9.261-8.74a1.524,1.524,0,0,1-2.158,0L19.634,10.2a1.524,1.524,0,0,1,0-2.158h0a1.524,1.524,0,0,1,2.158,0L23.95,10.2l5.419-5.419a1.524,1.524,0,0,1,2.158,0h0a1.524,1.524,0,0,1,0,2.158Zm0,12.246a1.524,1.524,0,0,1-2.158,0L19.634,22.45a1.524,1.524,0,0,1,0-2.158h0a1.524,1.524,0,0,1,2.158,0L23.95,22.45l5.419-5.419a1.524,1.524,0,0,1,2.158,0h0a1.524,1.524,0,0,1,0,2.158Z" transform="translate(0.989 2.229)"/></g></svg>