<svg xmlns="http://www.w3.org/2000/svg" width="26" height="19.4" viewBox="0 0 26 19.4"><defs><style>.a{fill:#001833;}</style></defs><path class="a" d="M7.8,41.7a4.86,4.86,0,0,0,0-9.7,4.86,4.86,0,0,0,0,9.7Zm3.12,1.386h-.337a5.935,5.935,0,0,1-5.566,0H4.68A4.843,4.843,0,0,0,0,48.074v1.247A2.018,2.018,0,0,0,1.95,51.4h11.7a2.018,2.018,0,0,0,1.95-2.079V48.074A4.843,4.843,0,0,0,10.92,43.086ZM19.5,41.7a4.166,4.166,0,0,0,0-8.314,4.166,4.166,0,0,0,0,8.314Zm1.95,1.386H21.3a4.827,4.827,0,0,1-3.591,0H17.55a4.3,4.3,0,0,0-2.263.667A6.567,6.567,0,0,1,16.9,48.074v1.663c0,.1-.02.186-.024.277H24.05A2.018,2.018,0,0,0,26,47.935,4.7,4.7,0,0,0,21.45,43.086Z" transform="translate(0 -32)"/></svg>