<svg xmlns="http://www.w3.org/2000/svg" width="30.503" height="30.503" viewBox="0 0 30.503 30.503"><defs><style>.a{fill:none;}.b{fill:#001833;}</style></defs><path class="a" d="M0,0H30.5V30.5H0Z"/><path class="b" d="M4.271,15.71H11.9a1.275,1.275,0,0,0,1.271-1.271V4.271A1.275,1.275,0,0,0,11.9,3H4.271A1.275,1.275,0,0,0,3,4.271V14.439A1.275,1.275,0,0,0,4.271,15.71Zm0,10.168H11.9a1.275,1.275,0,0,0,1.271-1.271V19.522A1.275,1.275,0,0,0,11.9,18.251H4.271A1.275,1.275,0,0,0,3,19.522v5.084A1.275,1.275,0,0,0,4.271,25.877Zm12.71,0h7.626a1.275,1.275,0,0,0,1.271-1.271V14.439a1.275,1.275,0,0,0-1.271-1.271H16.981a1.275,1.275,0,0,0-1.271,1.271V24.606A1.275,1.275,0,0,0,16.981,25.877ZM15.71,4.271V9.355a1.275,1.275,0,0,0,1.271,1.271h7.626a1.275,1.275,0,0,0,1.271-1.271V4.271A1.275,1.275,0,0,0,24.606,3H16.981A1.275,1.275,0,0,0,15.71,4.271Z" transform="translate(0.813 0.813)"/></svg>