<svg xmlns="http://www.w3.org/2000/svg" width="22.857" height="20" viewBox="0 0 22.857 20"><defs><style>.a{fill:#0075d6;}</style></defs><path class="a" d="M6.667,33.071v3.571A1.071,1.071,0,0,1,5.6,37.714H1.071A1.071,1.071,0,0,1,0,36.643V33.071A1.071,1.071,0,0,1,1.071,32H5.6a1.071,1.071,0,0,1,1.071,1.071Zm8.1,10.714V40.214a1.071,1.071,0,0,0-1.071-1.071H9.167A1.071,1.071,0,0,0,8.1,40.214v3.571a1.071,1.071,0,0,0,1.071,1.071H13.69A1.071,1.071,0,0,0,14.762,43.786ZM16.19,33.071v3.571a1.071,1.071,0,0,0,1.071,1.071h4.524a1.071,1.071,0,0,0,1.071-1.071V33.071A1.071,1.071,0,0,0,21.786,32H17.262A1.071,1.071,0,0,0,16.19,33.071Zm-1.429,3.571V33.071A1.071,1.071,0,0,0,13.69,32H9.167A1.071,1.071,0,0,0,8.1,33.071v3.571a1.071,1.071,0,0,0,1.071,1.071H13.69A1.071,1.071,0,0,0,14.762,36.643ZM5.6,39.143H1.071A1.071,1.071,0,0,0,0,40.214v3.571a1.071,1.071,0,0,0,1.071,1.071H5.6a1.071,1.071,0,0,0,1.071-1.071V40.214A1.071,1.071,0,0,0,5.6,39.143ZM0,47.357v3.571A1.071,1.071,0,0,0,1.071,52H5.6a1.071,1.071,0,0,0,1.071-1.071V47.357A1.071,1.071,0,0,0,5.6,46.286H1.071A1.071,1.071,0,0,0,0,47.357Zm17.262-2.5h4.524a1.071,1.071,0,0,0,1.071-1.071V40.214a1.071,1.071,0,0,0-1.071-1.071H17.262a1.071,1.071,0,0,0-1.071,1.071v3.571A1.071,1.071,0,0,0,17.262,44.857Zm0,7.143h4.524a1.071,1.071,0,0,0,1.071-1.071V47.357a1.071,1.071,0,0,0-1.071-1.071H17.262a1.071,1.071,0,0,0-1.071,1.071v3.571A1.071,1.071,0,0,0,17.262,52ZM8.1,47.357v3.571A1.071,1.071,0,0,0,9.167,52H13.69a1.071,1.071,0,0,0,1.071-1.071V47.357a1.071,1.071,0,0,0-1.071-1.071H9.167A1.071,1.071,0,0,0,8.1,47.357Z" transform="translate(0 -32)"/></svg>