<svg xmlns="http://www.w3.org/2000/svg" width="35" height="35.4" viewBox="0 0 50 35.4"><defs><style>.a{fill:#0075d6;}</style></defs><path class="a" d="M15,49.7a8.85,8.85,0,1,0-8.75-8.85A8.8,8.8,0,0,0,15,49.7Zm6,2.529h-.648a11.958,11.958,0,0,1-10.7,0H9a9.054,9.054,0,0,0-9,9.1v2.276A3.773,3.773,0,0,0,3.75,67.4h22.5A3.773,3.773,0,0,0,30,63.607V61.331A9.054,9.054,0,0,0,21,52.228ZM37.5,49.7A7.586,7.586,0,1,0,30,42.114,7.545,7.545,0,0,0,37.5,49.7Zm3.75,2.529h-.3a9.747,9.747,0,0,1-6.906,0h-.3A8.6,8.6,0,0,0,29.4,53.445a11.635,11.635,0,0,1,3.1,7.886v3.034c0,.174-.039.34-.047.506h13.8A3.773,3.773,0,0,0,50,61.078,8.8,8.8,0,0,0,41.25,52.228Z" transform="translate(0 -32)"/></svg>