<svg width="936" height="1023" viewBox="0 0 936 1023" fill="none" xmlns="http://www.w3.org/2000/svg">
<g opacity="0.69">
<path d="M112.216 1023H110.328C89.2271 1023 68.5753 1016.9 50.8617 1005.43C33.148 993.967 19.1283 977.622 10.4917 958.369C1.8552 939.116 -1.02965 917.776 2.1848 896.921C5.39925 876.066 14.5758 856.585 28.6089 840.826L744.274 36.9501C754.539 25.4196 767.128 16.1927 781.214 9.87587C795.3 3.55909 810.564 0.295586 826.002 0.299962C847.088 0.298312 867.726 6.39061 885.432 17.8437C903.137 29.2967 917.155 45.6224 925.8 64.8561C934.444 84.0897 937.345 105.412 934.155 126.256C930.965 147.1 921.819 166.578 907.818 182.345L194.032 986.221C183.768 997.785 171.17 1007.04 157.067 1013.38C142.965 1019.72 127.678 1023 112.216 1023Z" fill="#0071F2"/>
<path d="M229.847 105.936C196.74 72.3871 143.813 116.027 170.397 154.942C173.71 159.779 178.079 163.8 183.175 166.7C188.27 169.6 193.958 171.304 199.809 171.682C205.66 172.061 211.52 171.104 216.947 168.885C222.373 166.665 227.224 163.241 231.133 158.871C237.692 151.539 241.211 141.984 240.972 132.149C240.733 122.314 236.755 112.94 229.847 105.936Z" fill="#0075D6"/>
<path d="M273.816 232.693C265.718 241.758 260.89 253.276 260.105 265.407C259.32 277.537 262.623 289.581 269.486 299.615L685.146 907.073C685.885 908.149 686.672 909.226 687.5 910.238C696.925 923.231 708.911 934.157 722.72 942.342C736.528 950.527 751.866 955.798 767.789 957.83C784.692 960.276 801.911 959.392 818.474 955.227C836.961 950.695 854.079 941.763 868.372 929.193C882.666 916.623 893.711 900.786 900.568 883.03C907.426 865.274 909.892 846.124 907.758 827.21C905.625 808.296 898.953 790.177 888.312 774.395C867.368 741.456 353.029 230.749 353.029 230.749C347.815 225.464 341.573 221.303 334.689 218.523C327.805 215.744 320.424 214.403 313.002 214.585C305.58 214.768 298.274 216.468 291.535 219.583C284.795 222.697 278.765 227.159 273.816 232.693Z" fill="#0075D6"/>
</g>
</svg>
